<svg width="99" height="76" viewBox="0 0 99 76" fill="none" xmlns="http://www.w3.org/2000/svg">
<path d="M59.7519 56.3344C64.8779 55.8066 70.0988 54.7041 74.1441 52.0642C78.5525 49.1874 81.5136 44.5188 81.5136 36.9751C81.5136 32.7364 79.6336 29.2589 76.555 26.5261C77.2158 25.0784 78.4299 21.2418 75.8985 16.2478L75.7953 16.0442L75.5738 15.9888L75.4526 16.4739C75.5738 15.9888 75.5734 15.9887 75.5729 15.9886L75.572 15.9884L75.5699 15.9878L75.5644 15.9865L75.5489 15.983C75.5366 15.9802 75.5201 15.9768 75.4995 15.9727C75.4583 15.9647 75.4007 15.9546 75.3263 15.9441C75.1774 15.9231 74.9617 15.9006 74.677 15.8904C74.1075 15.8701 73.263 15.8988 72.1263 16.0857C69.879 16.4552 66.492 17.4428 61.8288 19.8893C57.8999 19.0539 53.7059 18.6359 49.5467 18.6214L49.5432 18.6214C45.3817 18.6359 41.19 19.0551 37.2683 19.8905C32.5994 17.444 29.2084 16.4565 26.9585 16.0869C25.8205 15.9 24.9751 15.8713 24.4049 15.8917C24.12 15.9019 23.904 15.9244 23.7551 15.9454C23.6806 15.9558 23.6229 15.966 23.5817 15.974C23.5611 15.978 23.5446 15.9815 23.5322 15.9842L23.5167 15.9878L23.5113 15.9891L23.5091 15.9896L23.5082 15.9898C23.5078 15.9899 23.5074 15.99 23.6285 16.4752L23.5074 15.99L23.2854 16.0454L23.1822 16.2496C20.657 21.2443 21.8718 25.0804 22.5334 26.5279C19.4619 29.2597 17.5683 32.7369 17.5683 36.9764C17.5683 44.5025 20.5239 49.1735 24.9226 52.0597C28.9617 54.7101 34.1747 55.8272 39.2913 56.3642C38.2405 57.3892 37.3703 58.8468 36.9751 60.7463C35.5659 61.2125 33.2915 61.7709 30.8628 61.6016C28.2888 61.4222 25.554 60.4289 23.46 57.6336L23.4534 57.6244C23.4469 57.6156 23.4379 57.6032 23.4263 57.5877C23.403 57.5567 23.3695 57.5129 23.3257 57.458C23.2381 57.3483 23.1093 57.1941 22.9398 57.0096C22.6011 56.641 22.098 56.1494 21.4338 55.6495C20.1056 54.6497 18.1224 53.6087 15.5225 53.4666L15.5115 53.466L15.5004 53.4658L15.4952 53.9658C15.5004 53.4658 15.5002 53.4658 15.5001 53.4658L15.4997 53.4658L15.4985 53.4658L15.495 53.4658L15.4827 53.4658L15.4391 53.4659C15.4018 53.4661 15.3489 53.4668 15.2837 53.4685C15.1536 53.472 14.9731 53.4798 14.7704 53.4972C14.3831 53.5303 13.8489 53.603 13.445 53.7824C13.247 53.8703 13.0027 54.0171 12.861 54.2708C12.6963 54.5656 12.7309 54.8874 12.8819 55.1679C13.0203 55.4251 13.2645 55.6705 13.5833 55.9145C13.9094 56.164 14.3494 56.4387 14.9226 56.7444L14.9534 56.7608L14.9849 56.7723L14.9849 56.7723L14.9854 56.7725L14.9858 56.7726L14.9862 56.7728L14.9882 56.7735L15.0082 56.7814C15.0273 56.7891 15.058 56.8018 15.0991 56.82C15.1813 56.8563 15.3052 56.9145 15.4629 56.9985C15.7782 57.1666 16.2277 57.4378 16.7469 57.8438C17.7823 58.6533 19.0986 60.0012 20.1827 62.1448L20.1886 62.158C20.1923 62.1659 20.1966 62.1753 20.2016 62.1858C20.2076 62.1984 20.2144 62.2127 20.2223 62.2287C20.2515 62.2877 20.2945 62.37 20.3532 62.4715C20.4707 62.6744 20.6513 62.9545 20.9112 63.2793C21.4316 63.9295 22.268 64.7571 23.5457 65.5037C26.0361 66.9589 30.1484 68.0753 36.7574 67.0553C36.769 68.5985 36.7853 70.0665 36.7984 71.2452C36.8107 72.3566 36.8202 73.2109 36.8202 73.6289C36.8202 73.9873 36.6626 74.3818 36.2698 74.6612C35.8758 74.9416 35.184 75.1475 34.0493 74.988C14.6016 69.9313 0.717957 55.6657 0.717957 38.9838C0.717957 18.2003 22.3061 1.14444 49.2588 1.02447H49.545C76.6333 1.02447 98.372 18.128 98.3728 38.9838C98.3728 55.6599 84.5045 69.9213 65.0677 74.9827C63.9133 75.1526 63.2185 74.948 62.8263 74.6689C62.4364 74.3913 62.2795 73.9948 62.2795 73.6283C62.2795 73.2104 62.2858 72.478 62.2942 71.4962C62.2985 70.9959 62.3033 70.4309 62.3081 69.8097C62.3224 67.972 62.3367 65.6487 62.3367 63.0739C62.3367 59.989 61.2159 57.7495 59.7519 56.3344Z" stroke="#D6FFF6"/>
<path d="M18.4821 55.471L18.5799 55.5609L18.4663 55.4963C18.4675 55.4939 18.4688 55.4914 18.4701 55.4889C18.4741 55.4824 18.4781 55.4765 18.4821 55.471ZM20.2663 56.9613C20.3075 56.9788 20.3491 57.0012 20.3892 57.0285C20.347 57.011 20.3052 56.9885 20.2663 56.9613ZM22.1154 59.0327C22.0588 58.9682 22.0339 58.915 22.0233 58.8808C22.0509 58.8789 22.0947 58.8812 22.1568 58.8996C22.266 58.932 22.3852 59.0026 22.4789 59.103C22.5368 59.1712 22.5611 59.2268 22.5708 59.2617C22.5438 59.263 22.5006 59.2602 22.4392 59.2416C22.327 59.2075 22.2064 59.1341 22.1154 59.0327ZM24.5404 61.29L24.5405 61.29L24.5325 61.2842C24.419 61.2024 24.3611 61.1242 24.3347 61.0728C24.3673 61.0668 24.4165 61.0632 24.4861 61.0711C24.6306 61.0876 24.7981 61.1495 24.9396 61.2545L24.9395 61.2545L24.9456 61.2589C25.0588 61.3403 25.1174 61.4177 25.1445 61.4685C25.1138 61.4753 25.0631 61.4807 24.9873 61.4721C24.8452 61.456 24.6799 61.3948 24.5404 61.29ZM28.2584 62.7769L28.2584 62.7769L28.2622 62.7778C28.4087 62.8122 28.5214 62.8631 28.5992 62.9125C28.462 62.9445 28.2697 62.9486 28.0637 62.9015C27.9147 62.8661 27.8005 62.8135 27.7225 62.7628C27.859 62.7305 28.0521 62.7267 28.2584 62.7769ZM27.6104 62.6636C27.6105 62.6636 27.6115 62.6651 27.6129 62.6678C27.6109 62.665 27.6102 62.6636 27.6104 62.6636ZM32.1629 63.2477C32.3433 63.2452 32.4955 63.2761 32.6037 63.3174C32.4979 63.3596 32.3488 63.3928 32.1703 63.3948L32.1666 63.3948C31.9857 63.3981 31.8337 63.3677 31.7253 63.3266C31.831 63.2841 31.9807 63.2504 32.1629 63.2477ZM32.7479 63.3996C32.7476 63.3997 32.7453 63.3975 32.7422 63.393C32.7468 63.3972 32.7483 63.3995 32.7479 63.3996ZM31.5773 63.2421C31.5776 63.2421 31.5796 63.244 31.5824 63.2483C31.5783 63.2444 31.5769 63.2422 31.5773 63.2421ZM31.586 63.4069C31.5835 63.4108 31.5817 63.4127 31.5814 63.4126C31.5811 63.4126 31.5823 63.4106 31.586 63.4069ZM36.501 62.8123C36.5013 62.8123 36.5001 62.8144 36.4965 62.8186C36.4988 62.8144 36.5006 62.8123 36.501 62.8123ZM36.3683 62.9105C36.2779 62.9581 36.1488 63.0036 35.9854 63.0274C35.7906 63.0555 35.6145 63.0386 35.4882 63.0015C35.5779 62.9534 35.706 62.9077 35.8664 62.8844C36.0677 62.8577 36.2437 62.8745 36.3683 62.9105ZM35.359 63.0988C35.3586 63.0988 35.3597 63.0967 35.3632 63.0926C35.361 63.0968 35.3593 63.0988 35.359 63.0988ZM35.3422 62.9334C35.3423 62.9334 35.3431 62.9341 35.3443 62.9357C35.3428 62.9342 35.3421 62.9334 35.3422 62.9334ZM36.5136 62.9777C36.5135 62.9777 36.5125 62.9768 36.511 62.9749C36.5129 62.9767 36.5137 62.9776 36.5136 62.9777Z" stroke="#D6FFF6"/>
</svg>
