<svg width="99" height="78" viewBox="0 0 99 78" fill="#231651" xmlns="http://www.w3.org/2000/svg">
<path d="M7.27381 0.500278V0.500294H7.27782H91.3771V0.000294237L91.3802 0.500284C93.1845 0.488918 94.905 1.03994 96.1701 2.01083C97.4307 2.97833 98.123 4.26974 98.1549 5.59151V72.0841C98.1309 73.4101 97.4421 74.7076 96.1805 75.6803C94.9147 76.6561 93.1897 77.2105 91.3802 77.1992H91.3771L7.27782 77.1992L7.2738 77.1992C5.46723 77.2137 3.74351 76.6629 2.4776 75.6903C1.21581 74.7208 0.525933 73.4262 0.5 72.1027V5.60882C0.521964 4.28315 1.21006 2.98546 2.47239 2.01336C3.73865 1.03824 5.4646 0.485777 7.27381 0.500278Z" stroke="#D6FFF6"/>
<path d="M15.7017 28.8141H30.115V66.2356H15.7017V28.8141ZM22.9124 10.1901C24.5655 10.1901 26.1815 10.5857 27.5559 11.3269C28.9303 12.0682 30.0014 13.1217 30.6337 14.3542C31.266 15.5868 31.431 16.9429 31.1079 18.2512C30.7848 19.5594 29.9881 20.7609 28.8186 21.7037C27.6491 22.6465 26.1593 23.2882 24.5378 23.5477C22.9162 23.8071 21.2357 23.6727 19.7089 23.1613C18.182 22.6499 16.8774 21.7847 15.9602 20.6749C15.0429 19.5651 14.5541 18.2608 14.5557 16.9268C14.5578 15.1395 15.4391 13.426 17.0061 12.1628C18.5731 10.8996 20.6974 10.1901 22.9124 10.1901ZM39.1562 28.8141H52.9726V33.9518H53.1636C55.0896 31.0105 59.7853 27.9086 66.7969 27.9086C81.3933 27.8829 84.0993 35.6344 84.0993 45.685V66.2356H69.686V48.029C69.686 43.6941 69.5905 38.1133 62.1968 38.1133C54.8031 38.1133 53.5456 42.84 53.5456 47.7464V66.2356H39.1562V28.8141Z" fill="white"/>
</svg>
