<svg width="101" height="68" viewBox="0 0 101 68" fill="none" xmlns="http://www.w3.org/2000/svg">
<path d="M1 2H99.6549V66.9619H1V2ZM1 2L45.294 41.6989C48.6497 44.1049 52.0053 44.1049 55.3609 41.6989L99.6549 2H1ZM63.4143 34.4809L99.6549 66.9619L63.4143 34.4809Z" fill="#231651"/>
<path d="M1 2H99.6549M1 2V66.9619M1 2L45.294 41.6989C48.6496 44.1049 52.0053 44.1049 55.3609 41.6989L99.6549 2M99.6549 2V66.9619M99.6549 66.9619H1M99.6549 66.9619L63.4143 34.4809M1 66.9619L37.2406 34.4809" stroke="white"/>
<path d="M45.5636 40.8026C36.5894 32.5497 16.204 13.9341 1.5 1.5L99.5 1L72.6066 25.0465L66.92 30.1628L61.2335 35.2791L55.547 40.3953L54.8484 40.9874C52.1464 43.2772 48.1706 43.2 45.5636 40.8026Z" fill="#231651" stroke="white"/>
</svg>
