<svg width="684" height="751" viewBox="0 0 684 751" fill="none" xmlns="http://www.w3.org/2000/svg">
<path opacity="0.4" d="M36.8006 717.533L0 699.182L55.0631 671.715L91.8465 690.051L36.8006 717.533Z" fill="#D6D8E5"/>
<path d="M37.5587 680.545L7.08105 665.212L37.5587 649.879L68.0192 665.212L37.5587 680.545Z" fill="#D6D8E5"/>
<path d="M37.5587 711.211L7.08105 695.878V665.212L37.5587 680.545V711.211Z" fill="#B1B6C4"/>
<path d="M68.0363 695.878L37.5587 711.211V680.545L68.0363 665.212V695.878Z" fill="#C4C7D6"/>
<path d="M78.5116 686.297C81.1471 686.936 83.966 686.639 86.3507 685.471C88.2459 685.471 98.5143 681.701 99.9099 684.915C101.133 687.723 96.6881 690.336 94.3105 690.832C89.1418 691.928 85.2825 694.181 83.1978 694.571C82.4038 694.819 81.5523 694.894 80.7174 694.79C79.8825 694.685 79.0897 694.404 78.4082 693.971C76.9265 692.619 77.0643 687.904 78.5116 686.297Z" fill="#38226D"/>
<path d="M83.1978 693.716C85.2825 693.325 89.1245 691.072 94.3103 689.976C96.2916 689.556 99.7201 687.663 100.065 685.396C100.53 687.994 96.5156 690.292 94.3103 690.757C89.1417 691.853 85.2825 694.106 83.1978 694.496C82.4038 694.745 81.5522 694.82 80.7174 694.715C79.8825 694.61 79.0897 694.329 78.4082 693.896C78.0798 693.593 77.8481 693.22 77.7363 692.814C78.5028 693.326 79.396 693.673 80.3444 693.83C81.2927 693.986 82.2699 693.947 83.1978 693.716V693.716Z" fill="#9C73FF"/>
<path d="M60.0079 677.632C62.6434 678.271 65.4623 677.974 67.847 676.806C69.7422 676.806 79.9072 673.036 81.3888 676.25C82.6121 679.058 78.167 681.671 75.8067 682.167C70.6381 683.263 66.7788 685.516 64.6941 685.906C63.9001 686.154 63.0486 686.229 62.2137 686.125C61.3788 686.02 60.586 685.739 59.9045 685.306C58.4228 684.029 58.5779 679.314 60.0079 677.632Z" fill="#38226D"/>
<path d="M64.6941 685.125C66.7788 684.735 70.6208 682.482 75.8066 681.386C77.788 680.965 81.2165 679.073 81.561 676.806C82.0262 679.404 78.0119 681.701 75.8066 682.167C70.638 683.263 66.7788 685.516 64.6941 685.906C63.9001 686.154 63.0486 686.229 62.2137 686.125C61.3788 686.02 60.586 685.739 59.9045 685.305C59.58 685.006 59.3487 684.639 59.2326 684.239C60.0019 684.746 60.8957 685.09 61.8436 685.243C62.7914 685.397 63.7673 685.357 64.6941 685.125V685.125Z" fill="#9C73FF"/>
<path d="M31.1843 666.504C39.1957 669.507 46.6902 670.048 52.9098 667.164L59.2844 663.951C59.6634 671.129 60.0252 678.022 60.0252 678.022C60.0252 678.022 64.9182 681.251 68.6396 678.367C68.6396 678.367 69.4321 668.306 70.2419 658.394L76.9267 655.03C76.7656 655.56 76.6788 656.104 76.6682 656.652C76.6682 658.529 78.2188 686.507 78.2188 686.507C78.2188 686.507 83.1462 689.06 86.9538 686.191C86.9538 686.191 89.5209 653.769 90.1067 648.648C90.7613 642.821 83.353 639.953 78.6495 641.439L71.4824 643.767L71.8269 640.163C72.4989 634.336 65.0733 631.468 60.387 632.955C56.1143 634.321 27.2389 643.752 27.2389 643.752C27.4186 646.175 27.758 648.587 28.2554 650.976L16.85 650.135C16.247 659.43 23.1902 663.44 31.1843 666.504ZM51.1007 650.39L58.7331 646.56C58.6059 647.029 58.5252 647.506 58.4919 647.987L51.1007 650.39Z" fill="#8C50FF"/>
<path d="M10.6819 621.721C10.6819 621.721 11.6122 634.081 13.473 635.868C15.3337 637.655 21.6395 638.872 21.6395 638.872L26.4808 645.75C26.4808 645.75 22.053 623.704 21.0881 623.223C20.1233 622.743 10.6819 621.721 10.6819 621.721Z" fill="#FFCEA9"/>
<path d="M20.0027 607.98C18.8287 607.503 17.495 607.414 16.2517 607.732C15.0084 608.05 13.9408 608.753 13.249 609.707C11.5261 612.276 9.61369 621.121 9.44141 622.623C10.1575 623.466 11.1061 624.137 12.1994 624.576C13.2926 625.014 14.4951 625.205 15.6955 625.131L20.0027 607.98Z" fill="#EDEDED"/>
<path d="M21.7082 608.206C24.1547 608.311 25.9809 608.851 26.291 608.206C26.5537 607.105 26.7378 605.992 26.8424 604.872C26.5667 604.241 26.3255 603.58 26.3255 603.58C23.2416 601.928 22.2767 599.075 21.8632 595.651C21.1741 589.869 24.7577 584.823 31.3735 584.223C37.6103 583.652 42.1932 587.466 43.4337 592.708C44.0884 595.291 45.3977 600.216 43.6232 604.436C42.6411 606.809 41.3662 608.701 40.1774 609.062C38.9431 609.039 37.7117 608.949 36.4905 608.791V608.791C36.4905 608.791 36.1631 610.398 35.9392 611.419C35.7152 612.441 35.7841 612.996 38.1444 614.258C40.5048 615.519 34.5953 618.117 30.7361 617.862C26.8768 617.607 22.5352 615.579 21.3464 613.357C19.9164 610.924 20.0198 608.071 21.7082 608.206Z" fill="#FFCEA9"/>
<path d="M83.8353 645.975C83.8339 646.28 83.7409 646.578 83.5655 646.842C83.3902 647.106 83.1387 647.324 82.836 647.477L64.1428 656.878C63.8395 657.032 63.4947 657.113 63.1435 657.113C62.7923 657.113 62.4475 657.032 62.1442 656.878L35.9565 643.692C35.6514 643.542 35.3979 643.324 35.2222 643.06C35.0465 642.796 34.955 642.496 34.9572 642.19V642.07L83.8353 645.975Z" fill="#E5E5E5"/>
<path d="M82.8361 647.477L64.1428 656.878C63.8418 657.037 63.4957 657.12 63.1435 657.118V645.975H83.8182C83.8186 646.278 83.7282 646.576 83.5559 646.84C83.3837 647.103 83.1356 647.323 82.8361 647.477V647.477Z" fill="#E5E5E5"/>
<path d="M63.8498 656.022C63.6389 656.131 63.3978 656.189 63.1521 656.189C62.9064 656.189 62.6653 656.131 62.4543 656.022L35.2156 642.326C34.871 642.145 34.871 641.86 35.2156 641.695L55.2699 631.588L83.8352 645.975L63.8498 656.022Z" fill="#F4F4F4"/>
<path d="M46.3972 645.975L46.535 646.035L55.27 650.435L60.0595 648.017L60.1973 647.957L51.3246 643.497L46.3972 645.975Z" fill="#BFBFBF"/>
<path d="M46.5349 646.035L55.2699 650.435L60.0595 648.017L51.3245 643.632L46.5349 646.035Z" fill="#E5E5E5"/>
<path d="M76.4269 646.681L77.6846 647.312C77.7454 647.34 77.8135 647.356 77.8828 647.356C77.952 647.356 78.0201 647.34 78.0809 647.312L79.2869 646.711C79.4076 646.711 79.4248 646.561 79.2869 646.516L78.0292 645.87C77.9672 645.844 77.8996 645.831 77.8311 645.831C77.7626 645.831 77.6949 645.844 77.6329 645.87L76.4269 646.485C76.3407 646.546 76.3235 646.636 76.4269 646.681Z" fill="#3A2C6D"/>
<path d="M74.6522 645.75L75.9099 646.38C75.9707 646.409 76.0388 646.425 76.1081 646.425C76.1773 646.425 76.2454 646.409 76.3062 646.38L77.5123 645.78C77.6329 645.78 77.6329 645.63 77.5123 645.584L76.2545 644.954C76.1938 644.925 76.1256 644.91 76.0564 644.91C75.9872 644.91 75.919 644.925 75.8583 644.954L74.6522 645.554C74.5661 645.644 74.5488 645.75 74.6522 645.75Z" fill="#3A2C6D"/>
<path d="M72.8605 644.894L74.1182 645.524C74.1832 645.55 74.2537 645.563 74.325 645.563C74.3963 645.563 74.4668 645.55 74.5317 645.524L75.7205 644.924C75.8411 644.924 75.8584 644.773 75.7205 644.713L74.4628 644.083C74.4021 644.054 74.3339 644.039 74.2647 644.039C74.1955 644.039 74.1273 644.054 74.0666 644.083L72.8605 644.683C72.7744 644.743 72.7571 644.834 72.8605 644.894Z" fill="#3A2C6D"/>
<path d="M71.0859 643.993L72.3437 644.623C72.4057 644.649 72.4733 644.662 72.5418 644.662C72.6103 644.662 72.678 644.649 72.74 644.623L73.946 644.023C74.0666 644.023 74.0838 643.872 73.946 643.812L72.6883 643.182C72.6233 643.156 72.5528 643.143 72.4815 643.143C72.4102 643.143 72.3397 643.156 72.2748 643.182L71.0859 643.782C70.9998 643.842 70.9826 643.933 71.0859 643.993Z" fill="#3A2C6D"/>
<path d="M69.2943 643.092L70.5692 643.722C70.6299 643.751 70.6981 643.767 70.7673 643.767C70.8365 643.767 70.9046 643.751 70.9654 643.722L72.1541 643.122C72.2747 643.122 72.292 642.972 72.1541 642.926L70.8965 642.281C70.8345 642.255 70.7669 642.242 70.6984 642.242C70.6299 642.242 70.5622 642.255 70.5003 642.281L69.2943 642.896C69.2082 642.957 69.1909 643.047 69.2943 643.092Z" fill="#3A2C6D"/>
<path d="M67.5196 642.191L68.7773 642.836C68.8392 642.862 68.9069 642.875 68.9754 642.875C69.0439 642.875 69.1116 642.862 69.1735 642.836L70.3795 642.221C70.5001 642.221 70.5174 642.07 70.3795 642.025L69.1218 641.395C69.058 641.366 68.9871 641.351 68.9151 641.351C68.8431 641.351 68.7722 641.366 68.7084 641.395L67.5196 641.995C67.4334 642.055 67.4162 642.146 67.5196 642.191Z" fill="#3A2C6D"/>
<path d="M65.7451 641.245L67.0028 641.875C67.0647 641.901 67.1324 641.914 67.2009 641.914C67.2694 641.914 67.3371 641.901 67.399 641.875L68.605 641.275C68.7256 641.275 68.7256 641.124 68.605 641.064L67.3473 640.434C67.2854 640.408 67.2177 640.395 67.1492 640.395C67.0807 640.395 67.0131 640.408 66.9511 640.434L65.7451 641.034C65.6417 641.154 65.6417 641.245 65.7451 641.245Z" fill="#3A2C6D"/>
<path d="M63.9532 640.404L65.2109 641.034C65.2717 641.063 65.3398 641.078 65.409 641.078C65.4783 641.078 65.5464 641.063 65.6072 641.034L66.8131 640.434C66.9337 640.434 66.951 640.283 66.8131 640.238L65.5555 639.593C65.4935 639.567 65.4258 639.554 65.3573 639.554C65.2888 639.554 65.2212 639.567 65.1592 639.593L63.9532 640.208C63.8671 640.268 63.8499 640.359 63.9532 640.404Z" fill="#3A2C6D"/>
<path d="M62.1786 639.502L63.4364 640.133C63.4971 640.162 63.5653 640.177 63.6345 640.177C63.7037 640.177 63.7719 640.162 63.8326 640.133L65.0387 639.532C65.1593 639.532 65.1593 639.382 65.0387 639.337L63.7465 638.691C63.6857 638.663 63.6176 638.647 63.5484 638.647C63.4791 638.647 63.411 638.663 63.3502 638.691L62.1442 639.292C62.0236 639.367 62.0236 639.457 62.1786 639.502Z" fill="#3A2C6D"/>
<path d="M60.387 638.616L61.6447 639.247C61.7096 639.273 61.7801 639.286 61.8515 639.286C61.9228 639.286 61.9933 639.273 62.0582 639.247L63.247 638.646C63.3676 638.646 63.3848 638.496 63.247 638.436L62.0237 637.79C61.963 637.762 61.8948 637.746 61.8256 637.746C61.7564 637.746 61.6882 637.762 61.6275 637.79L60.4215 638.391C60.3009 638.466 60.3009 638.556 60.387 638.616Z" fill="#3A2C6D"/>
<path d="M58.5779 637.715L59.8356 638.346C59.8976 638.371 59.9653 638.385 60.0338 638.385C60.1023 638.385 60.1699 638.371 60.2319 638.346L61.438 637.745C61.5586 637.745 61.5758 637.595 61.438 637.535L60.3008 636.889C60.2359 636.864 60.1654 636.85 60.0941 636.85C60.0227 636.85 59.9522 636.864 59.8873 636.889L58.6985 637.49C58.5779 637.565 58.5779 637.655 58.5779 637.715Z" fill="#3A2C6D"/>
<path d="M56.8549 636.814L58.1299 637.445C58.1907 637.474 58.2588 637.489 58.328 637.489C58.3973 637.489 58.4654 637.474 58.5262 637.445L59.7322 636.844C59.8355 636.844 59.8528 636.694 59.7322 636.649L58.4745 636.004C58.4125 635.978 58.3448 635.965 58.2763 635.965C58.2078 635.965 58.1402 635.978 58.0782 636.004L56.8722 636.619C56.7343 636.739 56.7343 636.739 56.8549 636.814Z" fill="#3A2C6D"/>
<path d="M55.1322 635.913L56.3899 636.559C56.4518 636.585 56.5195 636.598 56.588 636.598C56.6565 636.598 56.7242 636.585 56.7861 636.559L57.9922 635.943C58.1128 635.943 58.13 635.793 57.9922 635.748L56.7344 635.117C56.6706 635.088 56.5997 635.073 56.5277 635.073C56.4557 635.073 56.3848 635.088 56.3209 635.117L55.1322 635.718C54.9599 635.778 54.9426 635.868 55.1322 635.913Z" fill="#3A2C6D"/>
<path d="M52.4099 634.592L54.5291 635.658C54.5911 635.683 54.6587 635.696 54.7272 635.696C54.7957 635.696 54.8634 635.683 54.9253 635.658L56.1314 635.057C56.252 635.057 56.252 634.907 56.1314 634.847L54.0294 633.736C53.9675 633.71 53.8998 633.697 53.8313 633.697C53.7628 633.697 53.6952 633.71 53.6332 633.736L52.4272 634.351C52.4091 634.35 52.3909 634.352 52.3738 634.358C52.3566 634.363 52.3408 634.371 52.3272 634.381C52.3136 634.392 52.3025 634.404 52.2945 634.419C52.2865 634.433 52.2819 634.448 52.2807 634.464C52.2796 634.48 52.282 634.496 52.2879 634.51C52.2938 634.525 52.303 634.539 52.315 634.551C52.327 634.563 52.3416 634.573 52.3579 634.58C52.3741 634.587 52.3918 634.591 52.4099 634.592V634.592Z" fill="#3A2C6D"/>
<path d="M72.0507 646.215L73.3257 646.846C73.3865 646.875 73.4546 646.89 73.5238 646.89C73.5931 646.89 73.6612 646.875 73.722 646.846L74.928 646.245C75.0314 646.245 75.0486 646.095 74.928 646.05L73.6703 645.419C73.6095 645.39 73.5414 645.375 73.4721 645.375C73.4029 645.375 73.3348 645.39 73.274 645.419L72.0679 646.02C71.9646 646.08 71.9646 646.17 72.0507 646.215Z" fill="#3A2C6D"/>
<path d="M70.2762 645.314L71.5339 645.96C71.5959 645.985 71.6635 645.999 71.732 645.999C71.8005 645.999 71.8682 645.985 71.9302 645.96L73.1361 645.344C73.2567 645.344 73.274 645.194 73.1361 645.149L71.8785 644.518C71.8146 644.489 71.7437 644.474 71.6717 644.474C71.5997 644.474 71.5288 644.489 71.465 644.518L70.2762 645.119C70.1901 645.179 70.1729 645.269 70.2762 645.314Z" fill="#3A2C6D"/>
<path d="M68.4844 644.428L69.7421 645.059C69.807 645.085 69.8775 645.098 69.9488 645.098C70.0201 645.098 70.0906 645.085 70.1555 645.059L71.3443 644.458C71.4649 644.458 71.4821 644.308 71.3443 644.248L70.0866 643.617C70.0247 643.592 69.957 643.579 69.8885 643.579C69.82 643.579 69.7524 643.592 69.6904 643.617L68.4844 644.218C68.3983 644.248 68.3811 644.368 68.4844 644.428Z" fill="#3A2C6D"/>
<path d="M66.7099 643.527L67.9676 644.158C68.0296 644.183 68.0972 644.197 68.1657 644.197C68.2342 644.197 68.3019 644.183 68.3639 644.158L69.5699 643.557C69.6905 643.557 69.6905 643.407 69.5699 643.347L68.3122 642.716C68.2502 642.691 68.1826 642.678 68.1141 642.678C68.0456 642.678 67.9779 642.691 67.9159 642.716L66.7099 643.317C66.6065 643.377 66.6065 643.467 66.7099 643.527Z" fill="#3A2C6D"/>
<path d="M64.9352 642.626L66.1929 643.272C66.2549 643.297 66.3225 643.31 66.391 643.31C66.4595 643.31 66.5272 643.297 66.5892 643.272L67.7951 642.656C67.9157 642.656 67.933 642.506 67.7951 642.461L66.5375 641.83C66.4736 641.801 66.4027 641.786 66.3307 641.786C66.2588 641.786 66.1878 641.801 66.124 641.83L64.9352 642.431C64.8491 642.491 64.8319 642.581 64.9352 642.626Z" fill="#3A2C6D"/>
<path d="M63.1435 641.74L64.4012 642.371C64.4661 642.396 64.5366 642.41 64.6079 642.41C64.6792 642.41 64.7497 642.396 64.8147 642.371L66.0034 641.77C66.124 641.77 66.1413 641.62 66.0034 641.56L64.7458 640.929C64.6838 640.904 64.6161 640.891 64.5476 640.891C64.4791 640.891 64.4115 640.904 64.3495 640.929L63.1435 641.53C63.0573 641.59 63.0401 641.68 63.1435 641.74Z" fill="#3A2C6D"/>
<path d="M61.3689 640.839L62.6266 641.47C62.6886 641.495 62.7562 641.509 62.8247 641.509C62.8932 641.509 62.9609 641.495 63.0229 641.47L64.2289 640.869C64.3495 640.869 64.3495 640.719 64.2289 640.659L62.9712 640.028C62.9092 640.003 62.8416 639.989 62.7731 639.989C62.7046 639.989 62.6369 640.003 62.5749 640.028L61.3689 640.629C61.2655 640.689 61.2655 640.779 61.3689 640.839Z" fill="#3A2C6D"/>
<path d="M59.5771 639.938L60.8348 640.569C60.8955 640.597 60.9637 640.613 61.0329 640.613C61.1021 640.613 61.1703 640.597 61.231 640.569L62.437 639.968C62.5576 639.968 62.5748 639.818 62.437 639.773L61.1793 639.127C61.1144 639.101 61.0439 639.088 60.9726 639.088C60.9013 639.088 60.8308 639.101 60.7659 639.127L59.5771 639.743C59.491 639.743 59.4738 639.893 59.5771 639.938Z" fill="#3A2C6D"/>
<path d="M57.7853 639.037L59.0602 639.668C59.121 639.697 59.1891 639.712 59.2584 639.712C59.3276 639.712 59.3957 639.697 59.4565 639.668L60.6625 639.067C60.7659 639.067 60.7831 638.917 60.6625 638.872L59.4048 638.241C59.344 638.212 59.2759 638.197 59.2067 638.197C59.1374 638.197 59.0693 638.212 59.0085 638.241L57.8025 638.842C57.6991 638.902 57.6991 638.992 57.7853 639.037Z" fill="#3A2C6D"/>
<path d="M56.0108 638.136L57.2685 638.781C57.3305 638.807 57.3981 638.82 57.4666 638.82C57.5351 638.82 57.6028 638.807 57.6648 638.781L58.8708 638.166C58.9914 638.166 59.0086 638.016 58.8708 637.971L57.6131 637.34C57.5492 637.311 57.4783 637.296 57.4063 637.296C57.3344 637.296 57.2635 637.311 57.1996 637.34L56.0108 637.941C55.9246 638.001 55.9074 638.091 56.0108 638.136Z" fill="#3A2C6D"/>
<path d="M54.2191 637.25L55.4768 637.881C55.5417 637.906 55.6122 637.92 55.6835 637.92C55.7548 637.92 55.8253 637.906 55.8902 637.881L57.079 637.28C57.1996 637.28 57.2168 637.13 57.079 637.07L55.8213 636.439C55.7594 636.413 55.6917 636.4 55.6232 636.4C55.5547 636.4 55.4871 636.413 55.4251 636.439L54.2191 637.04C54.133 637.1 54.1157 637.19 54.2191 637.25Z" fill="#3A2C6D"/>
<path d="M52.4444 636.349L53.7021 636.979C53.764 637.005 53.8317 637.018 53.9002 637.018C53.9687 637.018 54.0363 637.005 54.0983 636.979L55.3043 636.379C55.4249 636.379 55.4249 636.228 55.3043 636.168L54.0466 635.538C53.9847 635.512 53.917 635.499 53.8485 635.499C53.78 635.499 53.7123 635.512 53.6504 635.538L52.4444 636.138C52.341 636.198 52.341 636.289 52.4444 636.349Z" fill="#3A2C6D"/>
<path d="M73.8425 647.116L75.9617 648.183C76.0237 648.208 76.0914 648.221 76.1599 648.221C76.2284 648.221 76.296 648.208 76.358 648.183L77.564 647.582C77.6847 647.582 77.7019 647.432 77.564 647.372L75.4448 646.305C75.3799 646.28 75.3094 646.266 75.2381 646.266C75.1668 646.266 75.0963 646.28 75.0313 646.305L73.8425 646.921C73.7564 646.981 73.7391 647.071 73.8425 647.116Z" fill="#3A2C6D"/>
<path d="M52.2894 634.637L53.5471 635.267C53.6505 635.267 53.6505 635.402 53.5471 635.463L52.2722 636.093C52.2178 636.123 52.1552 636.138 52.0913 636.138C52.0274 636.138 51.9648 636.123 51.9104 636.093H51.807C51.7533 636.071 51.6944 636.059 51.6347 636.059C51.5751 636.059 51.5162 636.071 51.4624 636.093L50.1186 636.769C50.0587 636.791 49.9942 636.803 49.9291 636.803C49.8639 636.803 49.7995 636.791 49.7396 636.769L48.947 636.364C48.8437 636.364 48.8437 636.229 48.947 636.168L50.2047 635.538L50.4632 635.418L50.6527 635.312L50.8422 635.222L51.9104 634.682C51.9633 634.645 52.0263 634.622 52.0929 634.614C52.1595 634.606 52.2273 634.614 52.2894 634.637V634.637Z" fill="#3A2C6D"/>
<path d="M69.5182 650.15L70.7759 650.781C70.8367 650.81 70.9048 650.825 70.9741 650.825C71.0433 650.825 71.1114 650.81 71.1722 650.781L72.3782 650.18C72.4988 650.18 72.4988 650.03 72.3782 649.985L71.1205 649.354C71.0597 649.325 70.9916 649.31 70.9224 649.31C70.8531 649.31 70.785 649.325 70.7242 649.354L69.5182 649.955C69.432 650.015 69.4148 650.105 69.5182 650.15Z" fill="#3A2C6D"/>
<path d="M67.7437 649.264L69.0014 649.895C69.0633 649.92 69.131 649.933 69.1995 649.933C69.268 649.933 69.3357 649.92 69.3976 649.895L70.6036 649.294C70.7242 649.294 70.7242 649.144 70.6036 649.084L69.3459 648.453C69.284 648.427 69.2163 648.414 69.1478 648.414C69.0793 648.414 69.0117 648.427 68.9497 648.453L67.7437 649.054C67.6403 649.114 67.6403 649.204 67.7437 649.264Z" fill="#3A2C6D"/>
<path d="M65.9517 648.363L67.2267 648.994C67.2874 649.023 67.3556 649.038 67.4248 649.038C67.494 649.038 67.5622 649.023 67.6229 648.994L68.829 648.393C68.9323 648.393 68.9496 648.243 68.829 648.198L67.5712 647.567C67.5105 647.538 67.4423 647.523 67.3731 647.523C67.3039 647.523 67.2357 647.538 67.175 647.567L65.9689 648.183C65.8656 648.228 65.8656 648.318 65.9517 648.363Z" fill="#3A2C6D"/>
<path d="M50.825 640.749L52.0827 641.379C52.1466 641.408 52.2175 641.424 52.2895 641.424C52.3614 641.424 52.4324 641.408 52.4962 641.379L53.685 640.779C53.8056 640.779 53.8229 640.629 53.685 640.584L52.4273 639.938C52.3653 639.912 52.2977 639.899 52.2292 639.899C52.1607 639.899 52.093 639.912 52.031 639.938L50.825 640.554C50.7389 640.614 50.7216 640.704 50.825 640.749Z" fill="#3A2C6D"/>
<path d="M49.0505 639.863L50.3082 640.493C50.3701 640.519 50.4378 640.532 50.5063 640.532C50.5748 640.532 50.6424 640.519 50.7044 640.493L51.9104 639.878C52.031 639.878 52.0483 639.742 51.9104 639.682L50.6527 639.052C50.5889 639.023 50.518 639.008 50.446 639.008C50.374 639.008 50.3031 639.023 50.2392 639.052L49.0505 639.652C48.9643 639.742 48.9471 639.742 49.0505 639.863Z" fill="#3A2C6D"/>
<path d="M47.2757 638.962L48.5335 639.593C48.5942 639.621 48.6624 639.637 48.7316 639.637C48.8008 639.637 48.869 639.621 48.9297 639.593L50.1358 638.992C50.2564 638.992 50.2736 638.842 50.1358 638.797L48.878 638.151C48.8131 638.125 48.7426 638.112 48.6713 638.112C48.6 638.112 48.5295 638.125 48.4645 638.151L47.2757 638.767C47.1896 638.827 47.1724 638.917 47.2757 638.962Z" fill="#3A2C6D"/>
<path d="M45.5013 638.061L46.7589 638.707C46.8209 638.732 46.8886 638.745 46.9571 638.745C47.0256 638.745 47.0932 638.732 47.1552 638.707L48.3612 638.091C48.4818 638.091 48.4818 637.941 48.3612 637.896L47.0863 637.265C47.0255 637.236 46.9574 637.221 46.8882 637.221C46.8189 637.221 46.7508 637.236 46.69 637.265L45.484 637.866C45.4151 637.926 45.3979 638.016 45.5013 638.061Z" fill="#3A2C6D"/>
<path d="M63.7466 647.251L65.4694 648.123C65.5344 648.148 65.6049 648.162 65.6762 648.162C65.7475 648.162 65.818 648.148 65.8829 648.123L67.0717 647.522C67.1923 647.522 67.2095 647.372 67.0717 647.312L65.3488 646.455C65.2881 646.427 65.2199 646.411 65.1507 646.411C65.0815 646.411 65.0134 646.427 64.9526 646.455L63.7466 647.056C63.6432 647.101 63.626 647.251 63.7466 647.251Z" fill="#3A2C6D"/>
<path d="M52.5995 641.65L54.3223 642.506C54.3831 642.535 54.4512 642.55 54.5204 642.55C54.5897 642.55 54.6578 642.535 54.7186 642.506L55.9245 641.905C56.0451 641.905 56.0624 641.755 55.9245 641.695L54.2017 640.839C54.1397 640.813 54.0721 640.8 54.0036 640.8C53.9351 640.8 53.8674 640.813 53.8055 640.839L52.5995 641.44C52.5133 641.5 52.4961 641.59 52.5995 641.65Z" fill="#3A2C6D"/>
<path d="M54.8393 642.746L63.2124 646.966C63.2744 646.991 63.3421 647.005 63.4106 647.005C63.4791 647.005 63.5467 646.991 63.6087 646.966L64.8147 646.365C64.9353 646.365 64.9353 646.215 64.8147 646.155L56.4588 641.95C56.3949 641.921 56.324 641.906 56.252 641.906C56.1801 641.906 56.1091 641.921 56.0453 641.95L54.8565 642.551C54.7531 642.626 54.7359 642.746 54.8393 642.746Z" fill="#3A2C6D"/>
<path d="M69.8455 646.846L71.1032 647.477C71.164 647.506 71.2321 647.521 71.3014 647.521C71.3706 647.521 71.4387 647.506 71.4995 647.477L72.7055 646.876C72.8261 646.876 72.8434 646.726 72.7055 646.666L71.4478 646.035C71.3829 646.009 71.3124 645.996 71.2411 645.996C71.1697 645.996 71.0992 646.009 71.0343 646.035L69.8455 646.636C69.7594 646.696 69.7421 646.786 69.8455 646.846Z" fill="#3A2C6D"/>
<path d="M68.0709 645.945L69.3286 646.576C69.3894 646.605 69.4575 646.62 69.5267 646.62C69.596 646.62 69.6641 646.605 69.7249 646.576L70.9309 645.975C71.0515 645.975 71.0515 645.825 70.9309 645.78L69.6732 645.149C69.6124 645.12 69.5443 645.105 69.475 645.105C69.4058 645.105 69.3377 645.12 69.2769 645.149L68.0709 645.75C67.9848 645.75 67.9675 645.9 68.0709 645.945Z" fill="#3A2C6D"/>
<path d="M66.2792 645.059L67.5541 645.69C67.6161 645.715 67.6838 645.728 67.7523 645.728C67.8208 645.728 67.8884 645.715 67.9504 645.69L69.1564 645.089C69.2598 645.089 69.277 644.939 69.1564 644.879L67.8987 644.248C67.8367 644.223 67.7691 644.209 67.7006 644.209C67.6321 644.209 67.5644 644.223 67.5025 644.248L66.2964 644.849C66.1931 644.909 66.1931 644.999 66.2792 645.059Z" fill="#3A2C6D"/>
<path d="M64.5045 644.158L65.7623 644.789C65.823 644.818 65.8912 644.833 65.9604 644.833C66.0296 644.833 66.0978 644.818 66.1585 644.789L67.3646 644.188C67.4852 644.188 67.5024 644.038 67.3646 643.978L66.1068 643.347C66.0449 643.321 65.9772 643.308 65.9087 643.308C65.8402 643.308 65.7725 643.321 65.7106 643.347L64.5045 643.963C64.4184 644.023 64.4011 644.113 64.5045 644.158Z" fill="#3A2C6D"/>
<path d="M62.73 643.257L63.9877 643.888C64.0485 643.917 64.1166 643.932 64.1859 643.932C64.2551 643.932 64.3232 643.917 64.384 643.888L65.5901 643.272C65.7107 643.272 65.7279 643.122 65.5901 643.077L64.3323 642.446C64.2685 642.417 64.1975 642.402 64.1256 642.402C64.0536 642.402 63.9827 642.417 63.9188 642.446L62.73 643.047C62.6438 643.122 62.6266 643.212 62.73 643.257Z" fill="#3A2C6D"/>
<path d="M60.9556 642.371L62.2132 643.001C62.2752 643.027 62.3428 643.04 62.4113 643.04C62.4798 643.04 62.5475 643.027 62.6095 643.001L63.8154 642.401C63.9188 642.401 63.936 642.251 63.8154 642.19L62.5578 641.56C62.4958 641.534 62.4282 641.521 62.3597 641.521C62.2912 641.521 62.2235 641.534 62.1615 641.56L60.9556 642.16C60.8522 642.22 60.8522 642.311 60.9556 642.371Z" fill="#3A2C6D"/>
<path d="M59.1636 641.47L60.4213 642.1C60.4852 642.129 60.5561 642.144 60.6281 642.144C60.7001 642.144 60.771 642.129 60.8348 642.1L62.0236 641.5C62.1442 641.5 62.1615 641.349 62.0236 641.304L60.7659 640.659C60.7039 640.633 60.6363 640.62 60.5678 640.62C60.4993 640.62 60.4316 640.633 60.3697 640.659L59.1636 641.274C59.0775 641.334 59.0602 641.425 59.1636 641.47Z" fill="#3A2C6D"/>
<path d="M57.3892 640.569L58.5779 641.244C58.6399 641.27 58.7076 641.283 58.7761 641.283C58.8446 641.283 58.9122 641.27 58.9742 641.244L60.1801 640.629C60.3007 640.629 60.318 640.479 60.1801 640.434L58.9225 639.803C58.8586 639.774 58.7877 639.759 58.7158 639.759C58.6438 639.759 58.5729 639.774 58.509 639.803L57.3203 640.404C57.303 640.434 57.2858 640.524 57.3892 640.569Z" fill="#3A2C6D"/>
<path d="M55.6146 639.743L56.8722 640.373C56.9342 640.399 57.0019 640.412 57.0704 640.412C57.1389 640.412 57.2065 640.399 57.2685 640.373L58.4745 639.773C58.5951 639.773 58.5951 639.623 58.4745 639.562L57.2168 638.932C57.1548 638.906 57.0872 638.893 57.0187 638.893C56.9502 638.893 56.8825 638.906 56.8206 638.932L55.6146 639.532C55.5112 639.532 55.5112 639.623 55.6146 639.743Z" fill="#3A2C6D"/>
<path d="M53.8227 638.782L55.0804 639.412C55.1443 639.441 55.2152 639.456 55.2872 639.456C55.3592 639.456 55.4301 639.441 55.4939 639.412L56.6827 638.812C56.8033 638.812 56.8205 638.661 56.6827 638.616L55.425 637.971C55.363 637.945 55.2954 637.932 55.2269 637.932C55.1584 637.932 55.0907 637.945 55.0287 637.971L53.8227 638.586C53.7366 638.646 53.7194 638.736 53.8227 638.782Z" fill="#3A2C6D"/>
<path d="M52.0482 637.881L53.3059 638.526C53.3679 638.552 53.4356 638.565 53.5041 638.565C53.5726 638.565 53.6402 638.552 53.7022 638.526L54.9082 637.911C55.0288 637.911 55.0461 637.76 54.9082 637.715L53.6505 637.085C53.5867 637.056 53.5157 637.041 53.4438 637.041C53.3718 637.041 53.3009 637.056 53.237 637.085L52.0482 637.685C51.9621 637.745 51.9448 637.835 52.0482 637.881Z" fill="#3A2C6D"/>
<path d="M50.2738 636.994L51.5314 637.625C51.5934 637.651 51.6611 637.664 51.7296 637.664C51.7981 637.664 51.8657 637.651 51.9277 637.625L53.1337 637.024C53.2543 637.024 53.2543 636.874 53.1337 636.814L51.876 636.184C51.814 636.158 51.7464 636.145 51.6779 636.145C51.6094 636.145 51.5417 636.158 51.4797 636.184L50.2738 636.784C50.1704 636.844 50.1704 636.934 50.2738 636.994Z" fill="#3A2C6D"/>
<path d="M71.62 647.747L74.2389 649.054C74.3008 649.079 74.3685 649.092 74.437 649.092C74.5055 649.092 74.5732 649.079 74.6351 649.054L75.8239 648.453C75.9445 648.453 75.9618 648.303 75.8239 648.243L73.2223 646.936C73.1616 646.907 73.0934 646.892 73.0242 646.892C72.955 646.892 72.8869 646.907 72.8261 646.936L71.62 647.537C71.5339 647.597 71.5167 647.687 71.62 647.747Z" fill="#3A2C6D"/>
<path d="M69.0013 648.152L70.259 648.798C70.321 648.824 70.3886 648.837 70.4571 648.837C70.5256 648.837 70.5933 648.824 70.6553 648.798L71.8613 648.182C71.9819 648.182 71.9991 648.032 71.8613 647.987L70.6036 647.356C70.5428 647.328 70.4747 647.312 70.4054 647.312C70.3362 647.312 70.2681 647.328 70.2073 647.356L69.0013 647.957C68.9151 648.017 68.9151 648.107 69.0013 648.152Z" fill="#3A2C6D"/>
<path d="M67.1924 647.251L68.45 647.882C68.512 647.908 68.5797 647.921 68.6482 647.921C68.7167 647.921 68.7843 647.908 68.8463 647.882L70.0523 647.281C70.1729 647.281 70.1901 647.131 70.0523 647.071L68.7774 646.44C68.7154 646.415 68.6478 646.402 68.5793 646.402C68.5108 646.402 68.4431 646.415 68.3811 646.44L67.1924 647.041C67.1924 647.116 67.1924 647.251 67.1924 647.251Z" fill="#3A2C6D"/>
<path d="M65.4694 646.365L66.7271 646.996C66.7879 647.025 66.856 647.04 66.9253 647.04C66.9945 647.04 67.0626 647.025 67.1234 646.996L68.3295 646.395C68.4328 646.395 68.4501 646.245 68.3295 646.2L67.0717 645.554C67.0098 645.529 66.9421 645.516 66.8736 645.516C66.8051 645.516 66.7374 645.529 66.6755 645.554L65.4694 646.17C65.3488 646.23 65.3488 646.32 65.4694 646.365Z" fill="#3A2C6D"/>
<path d="M63.7465 645.464L65.0042 646.11C65.0691 646.136 65.1396 646.149 65.211 646.149C65.2823 646.149 65.3528 646.136 65.4177 646.11L66.6065 645.494C66.7271 645.494 66.7444 645.344 66.6065 645.299L65.3488 644.669C65.288 644.64 65.2199 644.624 65.1507 644.624C65.0814 644.624 65.0133 644.64 64.9525 644.669L63.7465 645.269C63.5742 645.329 63.557 645.419 63.7465 645.464Z" fill="#3A2C6D"/>
<path d="M61.8858 644.578L63.1435 645.209C63.2055 645.234 63.2731 645.248 63.3416 645.248C63.4101 645.248 63.4778 645.234 63.5398 645.209L64.7458 644.608C64.8664 644.608 64.8836 644.458 64.7458 644.398L63.4881 643.767C63.4232 643.742 63.3527 643.728 63.2813 643.728C63.21 643.728 63.1395 643.742 63.0746 643.767L61.8858 644.368C61.7996 644.428 61.7824 644.518 61.8858 644.578Z" fill="#3A2C6D"/>
<path d="M60.1111 643.677L61.3689 644.308C61.4296 644.337 61.4978 644.352 61.567 644.352C61.6362 644.352 61.7044 644.337 61.7651 644.308L62.9712 643.707C63.0918 643.707 63.0918 643.557 62.9712 643.512L61.7134 642.882C61.6527 642.853 61.5845 642.837 61.5153 642.837C61.4461 642.837 61.3779 642.853 61.3172 642.882L60.1111 643.482C60.0077 643.542 60.0077 643.632 60.1111 643.677Z" fill="#3A2C6D"/>
<path d="M58.3194 642.746L59.5772 643.377C59.6421 643.403 59.7126 643.416 59.784 643.416C59.8553 643.416 59.9258 643.403 59.9907 643.377L61.1795 642.776C61.3001 642.776 61.3174 642.626 61.1795 642.566L59.9218 641.935C59.861 641.906 59.7929 641.891 59.7236 641.891C59.6544 641.891 59.5863 641.906 59.5255 641.935L58.3194 642.536C58.2333 642.641 58.2161 642.746 58.3194 642.746Z" fill="#3A2C6D"/>
<path d="M56.5448 641.89L57.8025 642.521C57.8633 642.55 57.9314 642.565 58.0006 642.565C58.0698 642.565 58.138 642.55 58.1987 642.521L59.4048 641.92C59.5254 641.92 59.5426 641.77 59.4048 641.71L58.1471 641.079C58.0821 641.054 58.0116 641.04 57.9403 641.04C57.869 641.04 57.7985 641.054 57.7336 641.079L56.5448 641.695C56.4586 641.74 56.4414 641.83 56.5448 641.89Z" fill="#3A2C6D"/>
<path d="M54.7703 640.989L56.0281 641.62C56.0897 641.646 56.1575 641.66 56.2262 641.66C56.2949 641.66 56.3627 641.646 56.4244 641.62L57.6304 641.004C57.751 641.004 57.751 640.854 57.6304 640.809L56.3554 640.178C56.2947 640.149 56.2265 640.134 56.1573 640.134C56.0881 640.134 56.0199 640.149 55.9592 640.178L54.7531 640.779C54.6842 640.854 54.6669 640.944 54.7703 640.989Z" fill="#3A2C6D"/>
<path d="M52.9959 640.103L54.2535 640.734C54.3155 640.759 54.3832 640.772 54.4517 640.772C54.5202 640.772 54.5878 640.759 54.6498 640.734L55.8558 640.133C55.9591 640.133 55.9764 639.983 55.8558 639.923L54.5981 639.292C54.5361 639.267 54.4685 639.254 54.4 639.254C54.3315 639.254 54.2638 639.267 54.2018 639.292L52.9959 639.893C52.8925 639.953 52.8925 640.043 52.9959 640.103Z" fill="#3A2C6D"/>
<path d="M51.204 639.202L52.4618 639.833C52.5256 639.862 52.5965 639.877 52.6685 639.877C52.7405 639.877 52.8114 639.862 52.8752 639.833L54.0641 639.232C54.1847 639.232 54.2019 639.082 54.0641 639.037L52.8063 638.391C52.7444 638.366 52.6767 638.353 52.6082 638.353C52.5397 638.353 52.472 638.366 52.4101 638.391L51.204 639.007C51.1179 639.067 51.1007 639.157 51.204 639.202Z" fill="#3A2C6D"/>
<path d="M47.224 637.205L50.6698 638.947C50.7318 638.972 50.7994 638.985 50.8679 638.985C50.9364 638.985 51.0041 638.972 51.0661 638.947L52.2721 638.331C52.3927 638.331 52.41 638.181 52.2721 638.136L48.8263 636.394C48.7624 636.365 48.6915 636.35 48.6195 636.35C48.5476 636.35 48.4767 636.365 48.4128 636.394L47.224 636.995C47.1378 637.055 47.1206 637.145 47.224 637.205Z" fill="#3A2C6D"/>
<path d="M70.7758 649.054L72.4987 649.925C72.5607 649.95 72.6284 649.963 72.6969 649.963C72.7654 649.963 72.833 649.95 72.895 649.925L74.101 649.309C74.2216 649.309 74.2389 649.159 74.101 649.114L72.3781 648.243C72.3161 648.217 72.2485 648.204 72.18 648.204C72.1115 648.204 72.0438 648.217 71.9818 648.243L70.7758 648.858C70.638 648.918 70.638 649.008 70.7758 649.054Z" fill="#3A2C6D"/>
<path d="M83.8351 645.975L55.2699 631.588V612.065L55.4939 611.615L55.7179 611.525C56.0179 611.37 56.36 611.289 56.7085 611.289C57.057 611.289 57.3992 611.37 57.6992 611.525L83.8351 624.665C84.1334 624.82 84.3806 625.04 84.5527 625.303C84.7247 625.566 84.8158 625.864 84.8172 626.167V644.548C84.6276 645.434 84.4209 645.659 83.8351 645.975Z" fill="#E5E5E5"/>
<path d="M81.2166 626.993L55.2699 612.711V612.065L55.4939 611.615L55.7179 611.525C56.0179 611.37 56.36 611.289 56.7085 611.289C57.057 611.289 57.3992 611.37 57.6992 611.525L83.8354 624.665C84.1569 624.825 84.4152 625.065 84.5762 625.356L81.2166 626.993Z" fill="#E5E5E5"/>
<path d="M55.9247 611.57L83.3529 625.371C83.4972 625.445 83.6172 625.55 83.7017 625.677C83.7861 625.803 83.8321 625.946 83.8353 626.092V645.975L55.27 631.588V611.9C55.268 611.833 55.2868 611.766 55.3246 611.707C55.3624 611.648 55.4177 611.599 55.4847 611.566C55.5517 611.532 55.628 611.514 55.7054 611.515C55.7828 611.516 55.8586 611.535 55.9247 611.57V611.57Z" fill="#DCEEFF"/>
<path d="M55.9247 611.57L83.3529 625.371C83.4972 625.445 83.6172 625.55 83.7017 625.677C83.7861 625.803 83.8321 625.946 83.8353 626.092V645.975L55.27 631.588V611.9C55.268 611.833 55.2868 611.766 55.3246 611.707C55.3624 611.648 55.4177 611.599 55.4847 611.566C55.5517 611.532 55.628 611.514 55.7054 611.515C55.7828 611.516 55.8586 611.535 55.9247 611.57V611.57Z" fill="#F4F4F4"/>
<path d="M83.8353 645.975V645.254L55.27 630.882V631.588L83.8353 645.975Z" fill="#DBDBDB"/>
<path d="M56.0107 630.552V612.606L56.354 612.771V630.402L56.0107 630.552Z" fill="#1E3779"/>
<path d="M56.3553 612.771V630.402L82.9221 643.722V626.137L56.3553 612.771Z" fill="#3A2C6D"/>
<path d="M56.0107 630.552L82.9219 644.083V643.722L56.3553 630.402L56.0107 630.552Z" fill="#031F60"/>
<path d="M25.2574 608.461C24.5683 609.963 26.3084 611.735 30.9085 612.966C35.5086 614.198 35.922 612.606 35.922 612.606C38.9902 613.804 41.981 615.148 44.881 616.631C47.6376 618.312 48.8608 623.193 49.2399 631.423C49.6706 640.944 49.7051 655.06 49.3432 657.508C49.3432 657.508 44.1746 662.013 37.576 661.518C30.9774 661.022 19.8304 655.946 17.1427 652.012C17.1427 643.662 18.3315 642.295 16.7809 637.49C13.2318 626.482 11.3538 621.977 13.0939 614.648C14.5067 608.641 16.5397 607.875 19.2446 607.935C21.2581 608.019 23.2651 608.194 25.2574 608.461V608.461Z" fill="#F4F4F4"/>
<path d="M60.1112 641.65C54.6841 642.851 53.4092 639.863 52.7028 637.4C50.98 631.393 50.0496 626.017 48.7575 622.623C47.2413 618.628 45.6563 617.982 43.4165 617.201C40.815 616.285 38.558 618.222 39.4195 623.313C40.4939 629.226 42.16 635.045 44.3986 640.704C45.191 643.251 46.7217 645.578 48.8436 647.462C51.6519 649.444 55.8729 649.354 62.2476 647.972C65.9863 646.862 69.6161 645.491 73.1017 643.872C74.48 643.317 75.5482 642.941 78.2703 641.86C80.967 640.833 83.3333 639.245 85.1618 637.235C86.5401 635.478 86.7296 634.652 86.454 634.231C86.1783 633.811 85.4547 633.841 84.7311 634.577C83.6617 635.819 82.3424 636.883 80.8374 637.715C80.8374 637.715 82.5603 636.213 83.4734 635.177C84.3101 634.262 84.9999 633.251 85.5236 632.174C86.0232 631.153 85.0068 629.771 84.2315 630.492C83.4562 631.213 83.1116 631.994 81.6988 633.495C80.961 634.278 80.1163 634.979 79.1834 635.583C80.0577 634.558 80.8355 633.473 81.5093 632.339C82.1138 631.429 82.4067 630.386 82.3535 629.335C82.3535 628.81 81.4404 628.179 80.6306 629.185C79.7916 630.619 78.7497 631.956 77.5295 633.165C76.289 634.291 75.2381 634.937 75.2036 634.667C75.1691 634.396 75.9617 633.736 76.3924 632.444C76.8231 631.153 76.3924 629.756 75.5654 629.606C74.7384 629.456 74.8935 629.486 74.2388 630.717C73.3191 631.969 72.496 633.274 71.7751 634.622C71.3501 635.879 70.5815 637.028 69.5353 637.971C68.2259 639.157 65.2798 640.523 60.1112 641.65Z" fill="#FFCEA9"/>
<path d="M41.3492 616.39C44.9672 615.925 47.5343 617.351 49.1366 622.127C50.7389 626.902 51.8415 630.837 51.8415 630.837C50.4114 632.643 48.2405 633.901 45.777 634.351C41.4526 635.267 39.8848 633.465 39.8848 633.465C39.8848 633.465 38.6787 628.449 37.9379 625.04C37.1971 621.631 36.9386 616.961 41.3492 616.39Z" fill="#EDEDED"/>
<path d="M43.2098 591.897C43.2098 591.897 48.9297 584.313 36.525 582.766C27.5833 581.655 21.8289 586.656 21.1742 592.092C20.5368 597.288 24.2065 602.679 26.8425 604.827C29.447 605.405 32.2051 605.116 34.5782 604.016C34.726 602.598 34.7836 601.174 34.7505 599.751C34.7505 599.751 30.3916 591.762 43.2098 591.897Z" fill="#3A2C6D"/>
<path d="M68.0363 687.874V665.092L47.2759 675.649L55.2699 690.051L68.0363 687.874Z" fill="#C4C7D6"/>
<path d="M54.4255 666.399L62.3852 662.374L68.019 665.212L59.7665 669.297L54.4255 666.399Z" fill="#D6D8E5"/>
<path opacity="0.4" d="M382.651 563.153L284.585 513.806C277.504 510.247 278.4 504.03 286.566 499.915L350.106 467.942L473.791 530.235L410.269 562.207C402.085 566.322 389.732 566.758 382.651 563.153Z" fill="#D6D8E5"/>
<path d="M389.818 559.534L291.735 510.172C284.671 506.613 285.567 500.41 293.716 496.296L357.256 464.323L480.941 526.556L417.401 558.543C409.235 562.643 396.882 563.153 389.818 559.534Z" fill="#B1B4C4"/>
<path d="M480.941 526.556V523.297L475.238 526.165L480.941 526.556Z" fill="#B1B4C4"/>
<path d="M286.962 504.3V500.981L292.837 503.098L286.962 504.3Z" fill="#B1B4C4"/>
<path d="M389.818 556.275L291.735 506.913C284.671 503.354 285.567 497.136 293.716 493.037L357.256 461.034L480.941 523.282L417.401 555.254C409.235 559.384 396.882 559.819 389.818 556.275Z" fill="#D6D8E5"/>
<path d="M357.6 461.199L342.284 416.928L467.313 479.446L480.941 523.297L357.6 461.199Z" fill="#9EA1AF"/>
<path d="M477.323 525.114L480.941 523.297L475.514 519.603L477.323 525.114Z" fill="#9EA1AF"/>
<path d="M353.655 462.867L338.338 418.595L463.368 481.113L477.323 525.114L353.655 462.867Z" fill="#B1B4C4"/>
<path d="M671.043 599.721L187.07 356.167C180.282 352.743 174.786 343.583 174.786 335.699V9.38347C174.786 1.49928 180.282 -2.13495 187.07 1.28904L671.043 244.783C677.831 248.192 683.327 257.352 683.327 265.252V591.687C683.327 599.511 677.831 603.145 671.043 599.721Z" fill="#C4C7D6"/>
<path d="M673.524 603.085L678.899 600.396L676.573 586.535L673.524 603.085Z" fill="#C4C7D6"/>
<path d="M173.907 3.28626L179.179 0.643188L186.76 4.41257C186.76 4.41257 178.68 5.47881 178.49 5.43376C178.3 5.38871 173.907 3.28626 173.907 3.28626Z" fill="#B1B4C4"/>
<path d="M666.598 601.959L182.625 358.405C175.837 354.981 170.324 345.82 170.324 337.936V11.6209C170.324 3.72166 175.837 0.102442 182.625 3.51141L666.581 247.065C673.369 250.489 678.882 259.65 678.882 267.549V593.849C678.899 601.749 673.386 605.368 666.598 601.959Z" fill="#E4E7F2"/>
<path d="M665.754 602.379L181.781 358.825C174.993 355.401 169.497 346.241 169.497 338.356V12.0113C169.497 4.12709 174.993 0.492859 181.781 3.91685L665.754 247.501C672.542 250.91 678.038 260.07 678.038 267.969V594.284C678.038 602.199 672.542 605.803 665.754 602.379Z" fill="#201D38"/>
<path opacity="0.3" d="M671.387 582.541L175.63 333.055L175.888 13.3478C175.888 10.074 178.524 8.75243 181.781 10.3443L665.754 253.943C667.469 254.916 668.897 256.229 669.92 257.774C670.944 259.318 671.535 261.052 671.646 262.833L671.387 582.541Z" fill="url(#paint0_linear_7_26)"/>
<path d="M476.582 213.366L443.727 196.832V186.5L476.582 203.034V213.366Z" fill="#A298E2"/>
<path d="M552.527 251.615L482.733 216.459V206.127L552.527 241.283V251.615Z" fill="#F4CE2C"/>
<path d="M476.582 246.419L443.727 229.9V219.568L476.582 236.087V246.419Z" fill="#A298E2"/>
<path d="M505.854 261.407L482.733 249.528V239.196L505.854 251.075V261.407Z" fill="#4D3BFF"/>
<path d="M476.582 262.954L443.727 246.419V236.087L476.582 252.622V262.954Z" fill="#A298E2"/>
<path d="M521.739 285.675L482.733 266.047V255.715L521.739 275.343V285.675Z" fill="#4D3BFF"/>
<path d="M476.582 279.473L443.727 262.954V252.621L476.582 269.156V279.473Z" fill="#A298E2"/>
<path d="M585.606 334.227L482.733 282.581V272.249L585.606 323.91V334.227Z" fill="#FF8657"/>
<path d="M476.582 229.9L443.727 213.366V203.034L476.582 219.568V229.9Z" fill="#A298E2"/>
<path d="M610.88 297.554L482.733 232.994V222.662L610.88 287.222V297.554Z" fill="#A298E2"/>
<path d="M476.582 296.007L443.727 279.473V269.141L476.582 285.675V296.007Z" fill="#A298E2"/>
<path d="M593.583 355.927L482.733 299.116V288.784L593.583 345.595V355.927Z" fill="#C33AFC"/>
<path d="M476.582 329.076L443.727 312.541V302.209L476.582 318.744V329.076Z" fill="#A298E2"/>
<path d="M612.069 397.255L482.733 332.169V321.837L612.069 386.923V397.255Z" fill="#A298E2"/>
<path d="M476.582 345.595L443.727 329.076V318.744L476.582 335.263V345.595Z" fill="#A298E2"/>
<path d="M521.739 368.331L482.733 348.689V338.372L521.739 357.999V368.331Z" fill="#C33AFC"/>
<path d="M476.582 362.129L443.727 345.595V335.263L476.582 351.797V362.129Z" fill="#A298E2"/>
<path d="M562.433 405.515L482.733 365.223V354.891L562.433 395.183V405.515Z" fill="#4D3BFF"/>
<path d="M476.582 312.541L443.727 296.007V285.675L476.582 302.209V312.541Z" fill="#A298E2"/>
<path d="M497.101 322.874L482.733 315.635V305.303L497.101 312.542V322.874Z" fill="#4D3BFF"/>
<path d="M476.582 378.663L443.727 362.129V351.797L476.582 368.331V378.663Z" fill="#A298E2"/>
<path d="M534.178 407.587L482.733 381.757V371.425L534.178 397.255V407.587Z" fill="#C33AFC"/>
<path d="M476.582 411.717L443.727 395.182V384.85L476.582 401.385V411.717Z" fill="#A298E2"/>
<path d="M557.799 452.114L482.733 414.81V404.478L557.799 441.782V452.114Z" fill="#FF8657"/>
<path d="M476.582 428.251L443.727 411.717V401.385L476.582 417.919V428.251Z" fill="#A298E2"/>
<path d="M492.105 436.511L482.733 431.345V421.013L492.105 426.179V436.511Z" fill="#A298E2"/>
<path d="M476.582 444.77L443.727 428.251V417.919L476.582 434.438V444.77Z" fill="#A298E2"/>
<path d="M525.787 469.489L482.733 447.879V437.547L525.787 459.157V469.489Z" fill="#F4CE2C"/>
<path d="M476.582 395.183L443.727 378.663V368.316L476.582 384.851V395.183Z" fill="#A298E2"/>
<path d="M542.637 428.251L482.733 398.276V387.959L542.637 417.919V428.251Z" fill="#4D3BFF"/>
<path d="M264.083 110.06L231.227 93.5262V83.1942L264.083 99.7285V110.06Z" fill="#A298E2"/>
<path d="M409.838 183.406L270.233 113.154V102.822L409.838 173.074V183.406Z" fill="#C33AFC"/>
<path d="M264.083 143.114L231.227 126.58V116.248L264.083 132.782V143.114Z" fill="#A298E2"/>
<path d="M362.614 192.702L270.233 146.208V135.876L362.614 182.37V192.702Z" fill="#F4CE2C"/>
<path d="M264.083 159.648L231.227 143.114V132.782L264.083 149.316V159.648Z" fill="#A298E2"/>
<path d="M385.2 220.589L270.233 162.742V152.41L385.2 210.257V220.589Z" fill="#FF8657"/>
<path d="M264.083 176.168L231.227 159.648V149.316L264.083 165.835V176.168Z" fill="#A298E2"/>
<path d="M350.295 219.568L270.233 179.276V168.944L350.295 209.236V219.568Z" fill="#A298E2"/>
<path d="M264.083 126.58L231.227 110.045V99.7285L264.083 116.248V126.58Z" fill="#A298E2"/>
<path d="M340.027 164.814L270.233 129.688V119.356L340.027 154.482V164.814Z" fill="#4D3BFF"/>
<path d="M264.083 192.702L231.227 176.167V165.835L264.083 182.37V192.702Z" fill="#A298E2"/>
<path d="M311.289 216.46L270.233 195.795V185.463L311.289 206.128V216.46Z" fill="#C33AFC"/>
<path d="M264.083 225.755L231.227 209.221V198.904L264.083 215.423V225.755Z" fill="#A298E2"/>
<path d="M399.57 293.95L270.233 228.864V218.532L399.57 283.618V293.95Z" fill="#F4CE2C"/>
<path d="M264.083 242.29L231.227 225.755V215.423L264.083 231.958V242.29Z" fill="#A298E2"/>
<path d="M309.239 265.011L270.233 245.383V235.051L309.239 254.679V265.011Z" fill="#FF8657"/>
<path d="M264.083 258.824L231.227 242.289V231.957L264.083 248.492V258.824Z" fill="#A298E2"/>
<path d="M385.2 319.765L270.233 261.917V251.585L385.2 309.448V319.765Z" fill="#A298E2"/>
<path d="M264.083 209.236L231.227 192.702V182.37L264.083 198.904V209.236Z" fill="#A298E2"/>
<path d="M379.033 267.083L270.233 212.33V201.997L379.033 256.751V267.083Z" fill="#4D3BFF"/>
<path d="M264.083 275.343L231.227 258.809V248.492L264.083 265.011V275.343Z" fill="#A298E2"/>
<path d="M284.602 285.675L270.233 278.452V268.12L284.602 275.343V285.675Z" fill="#C33AFC"/>
<path d="M264.083 308.411L231.227 291.877V281.545L264.083 298.079V308.411Z" fill="#A298E2"/>
<path d="M296.92 324.931L270.233 311.505V301.173L296.92 314.599V324.931Z" fill="#F4CE2C"/>
<path d="M264.083 324.931L231.227 308.412V298.08L264.083 314.599V324.931Z" fill="#A298E2"/>
<path d="M340.027 363.166L270.233 328.04V317.708L340.027 352.834V363.166Z" fill="#FF8657"/>
<path d="M264.083 341.465L231.227 324.931V314.599L264.083 331.133V341.465Z" fill="#A298E2"/>
<path d="M381.083 400.349L270.233 344.559V334.227L381.083 390.017V400.349Z" fill="#A298E2"/>
<path d="M264.083 291.877L231.227 275.343V265.011L264.083 281.545V291.877Z" fill="#A298E2"/>
<path d="M409.838 365.223L270.233 294.971V284.639L409.838 354.891V365.223Z" fill="#4D3BFF"/>
<path opacity="0.4" d="M516.432 750.872C556.244 750.872 588.517 734.628 588.517 714.59C588.517 694.552 556.244 678.308 516.432 678.308C476.621 678.308 444.347 694.552 444.347 714.59C444.347 734.628 476.621 750.872 516.432 750.872Z" fill="#D6D8E5"/>
<path d="M595.598 709.439V612.711L451.721 615.865L452.031 705.069C449.343 715.806 456.166 727.024 472.551 735.269C500.702 749.43 546.341 749.445 574.493 735.269C588.638 728.105 595.667 718.764 595.598 709.439Z" fill="#A6CE28"/>
<path d="M523.513 648.948C563.325 648.948 595.598 632.704 595.598 612.666C595.598 592.628 563.325 576.384 523.513 576.384C483.702 576.384 451.428 592.628 451.428 612.666C451.428 632.704 483.702 648.948 523.513 648.948Z" fill="#BCD64D"/>
<path d="M584.21 612.711C584.21 618.613 578.576 624.815 568.79 629.756C558.108 635.102 543.516 638.406 528.148 638.947C526.614 638.947 525.081 639.037 523.53 639.037C506.474 639.037 489.986 635.643 478.253 629.756C468.467 624.815 462.833 618.613 462.833 612.711C462.833 606.809 468.467 600.607 478.253 595.666C489.986 589.764 506.474 586.37 523.513 586.37C525.064 586.37 526.614 586.37 528.148 586.46C543.516 587.001 558.108 590.305 568.79 595.666C578.576 600.562 584.21 606.704 584.21 612.711Z" fill="#28221C"/>
<path opacity="0.07" d="M584.21 612.711C584.21 618.613 578.576 624.815 568.79 629.756C558.108 635.102 543.516 638.406 528.148 638.946C512.78 638.406 498.17 635.102 487.505 629.756C477.702 624.725 472.068 618.568 472.068 612.711C472.068 606.854 477.685 600.607 487.471 595.666C498.152 590.305 512.762 587.001 528.13 586.46C543.498 587.001 558.091 590.305 568.773 595.666C578.576 600.562 584.21 606.704 584.21 612.711Z" fill="white"/>
<path d="M585.054 657.478L569.755 649.759L562.313 653.514L569.755 657.268V659.731L584.107 666.939L583.676 669.252C585.761 670.754 593.186 682.768 593.186 682.768L593.703 682.347V713.478C593.703 721.648 588.207 718.885 585.864 717.698L569.755 709.589L562.313 713.328L569.755 717.068V719.53L585.864 727.64C587.492 728.491 589.226 729.176 591.033 729.682L590.068 733.587L598.407 729.487H598.527H598.648C602.094 727.715 603.558 723.405 603.558 718.569V685.906C603.627 672.105 591.481 661.278 585.054 657.478Z" fill="#8DA01F"/>
<path d="M578.421 731.439L562.313 723.33V713.328L578.421 721.438C580.764 722.609 586.26 725.387 586.26 717.203V684.69C586.26 677.001 578.283 671.685 576.922 670.844L562.313 663.485V653.514L577.612 661.233C584.055 665.032 596.115 675.875 596.115 689.676V722.219C596.115 731.004 591.515 738.017 578.421 731.439Z" fill="#99B524"/>
<path opacity="0.4" d="M71.2754 558.663C98.6886 558.663 120.911 547.475 120.911 533.674C120.911 519.873 98.6886 508.685 71.2754 508.685C43.8622 508.685 21.6393 519.873 21.6393 533.674C21.6393 547.475 43.8622 558.663 71.2754 558.663Z" fill="#D6D8E5"/>
<path d="M78.3563 554.038C105.77 554.038 127.992 542.85 127.992 529.049C127.992 515.248 105.77 504.059 78.3563 504.059C50.9431 504.059 28.7203 515.248 28.7203 529.049C28.7203 542.85 50.9431 554.038 78.3563 554.038Z" fill="#D6D8E5"/>
<path d="M11.9051 443.629L29.2717 530.776H127.872L144.808 444.26L11.9051 443.629Z" fill="#D6D8E5"/>
<path d="M78.3564 476.022C115.095 476.022 144.877 461.035 144.877 442.548C144.877 424.061 115.095 409.074 78.3564 409.074C41.6183 409.074 11.8362 424.061 11.8362 442.548C11.8362 461.035 41.6183 476.022 78.3564 476.022Z" fill="#E4E6EF"/>
<path d="M78.3565 468.633C62.0581 468.633 46.8624 465.51 35.5603 459.818C25.8605 454.952 20.3129 448.645 20.3129 442.548C20.3129 436.451 25.8605 430.143 35.5603 425.278C46.8451 419.586 62.0581 416.462 78.3565 416.462C94.6549 416.462 109.868 419.586 121.153 425.278C130.853 430.143 136.4 436.451 136.4 442.548C136.4 448.645 130.939 455.027 121.153 459.818C109.868 465.54 94.7583 468.633 78.3565 468.633Z" fill="#28221C"/>
<path d="M106.973 416.177C107.915 404.916 105.858 393.617 100.962 383.163C96.0669 372.709 88.4659 363.383 78.7527 355.912V355.912L78.5631 355.747V356.062C68.8409 363.534 61.2331 372.864 56.3344 383.324C51.4358 393.784 49.3791 405.09 50.3252 416.357L12.2668 413.159C28.3241 465.885 78.7527 461.35 78.7527 461.35V461.245C82.5602 461.5 129.595 463.618 144.98 413.039L106.973 416.177Z" fill="#99B524"/>
<path d="M78.7529 461.35C78.7529 461.35 75.3071 420.292 12.1119 392.645C12.0603 392.645 -2.85986 460.854 78.7529 461.35Z" fill="#A6CE28"/>
<path d="M78.3564 461.35C78.3564 461.35 81.8022 420.292 144.997 392.645C144.997 392.645 159.969 460.854 78.3564 461.35Z" fill="#A6CE28"/>
<defs>
<linearGradient id="paint0_linear_7_26" x1="175.63" y1="296.112" x2="671.646" y2="296.112" gradientUnits="userSpaceOnUse">
<stop offset="0.21" stop-color="white" stop-opacity="0"/>
<stop offset="1" stop-color="white" stop-opacity="0.2"/>
</linearGradient>
</defs>
</svg>
